<?xml version="1.0" encoding="UTF-8" standalone="no"?>
<svg
   xmlns:osb="http://www.openswatchbook.org/uri/2009/osb"
   xmlns:dc="http://purl.org/dc/elements/1.1/"
   xmlns:cc="http://creativecommons.org/ns#"
   xmlns:rdf="http://www.w3.org/1999/02/22-rdf-syntax-ns#"
   xmlns:svg="http://www.w3.org/2000/svg"
   xmlns="http://www.w3.org/2000/svg"
   xmlns:xlink="http://www.w3.org/1999/xlink"
   xmlns:sodipodi="http://sodipodi.sourceforge.net/DTD/sodipodi-0.dtd"
   xmlns:inkscape="http://www.inkscape.org/namespaces/inkscape"
   width="350mm"
   height="200mm"
   viewBox="0 0 350 200"
   version="1.1"
   id="svg28"
   inkscape:version="1.0.2-2 (e86c870879, 2021-01-15)"
   sodipodi:docname="Logo.svg">
  <defs
     id="defs22">
    <linearGradient
       inkscape:collect="always"
       id="linearGradient925">
      <stop
         style="stop-color:#f9c4c8;stop-opacity:1;"
         offset="0"
         id="stop921" />
      <stop
         style="stop-color:#f9c4c8;stop-opacity:0;"
         offset="1"
         id="stop923" />
    </linearGradient>
    <linearGradient
       id="linearGradient893"
       osb:paint="solid">
      <stop
         style="stop-color:#00ff00;stop-opacity:1;"
         offset="0"
         id="stop891" />
    </linearGradient>
    <radialGradient
       inkscape:collect="always"
       xlink:href="#linearGradient925"
       id="radialGradient927"
       cx="174.62501"
       cy="96.572916"
       fx="174.62501"
       fy="96.572916"
       r="155.04584"
       gradientTransform="matrix(1,0,0,0.48634811,-3.175,50.663195)"
       gradientUnits="userSpaceOnUse" />
  </defs>
  <sodipodi:namedview
     id="base"
     pagecolor="#ffffff"
     bordercolor="#666666"
     borderopacity="1.0"
     inkscape:pageopacity="0.0"
     inkscape:pageshadow="2"
     inkscape:zoom="0.5"
     inkscape:cx="622.27205"
     inkscape:cy="400"
     inkscape:document-units="mm"
     inkscape:current-layer="layer1"
     inkscape:document-rotation="0"
     showgrid="false"
     inkscape:window-width="1366"
     inkscape:window-height="705"
     inkscape:window-x="-8"
     inkscape:window-y="-8"
     inkscape:window-maximized="1" />
  <metadata
     id="metadata25">
    <rdf:RDF>
      <cc:Work
         rdf:about="">
        <dc:format>image/svg+xml</dc:format>
        <dc:type
           rdf:resource="http://purl.org/dc/dcmitype/StillImage" />
        <dc:title></dc:title>
      </cc:Work>
    </rdf:RDF>
  </metadata>
  <g
     inkscape:groupmode="layer"
     id="layer2"
     inkscape:label="podloga"
     style="display:inline"
     sodipodi:insensitive="true">
    <rect
       style="opacity:0.999;fill:url(#radialGradient927);fill-opacity:1;stroke:none;stroke-width:2.279;stroke-miterlimit:4;stroke-dasharray:none;stroke-opacity:1"
       id="rect901"
       width="310.09167"
       height="150.8125"
       x="16.404169"
       y="22.225"
       ry="26.065691" />
  </g>
  <g
     inkscape:label="šapice"
     inkscape:groupmode="layer"
     id="layer1"
     style="display:inline">
    <path
       id="path58"
       style="opacity:0.999;fill:#000000;fill-opacity:0;stroke:#000000;stroke-width:1.51316;stroke-miterlimit:4;stroke-dasharray:none;stroke-opacity:1"
       inkscape:transform-center-x="2.8532069"
       inkscape:transform-center-y="-2.2820635"
       d="m 156.00372,32.535976 a 7.8668981,7.0907476 78.231439 0 0 -2.00562,0.317205 7.8668981,7.0907476 78.231439 0 0 -3.27714,2.37732 7.8668981,7.0907476 78.231439 0 0 1.05363,10.994622 7.8668981,7.0907476 78.231439 0 0 9.97267,-0.574345 7.8668981,7.0907476 78.231439 0 0 -0.82074,-11.008448 l -0.25705,-0.242876 a 7.8668981,7.0907476 78.231439 0 0 -4.66575,-1.863478 z m 17.19772,4.828971 a 7.8668981,7.0907476 78.231439 0 0 -2.00561,0.317206 7.8668981,7.0907476 78.231439 0 0 -3.27756,2.37732 7.8668981,7.0907476 78.231439 0 0 1.05405,10.994622 7.8668981,7.0907476 78.231439 0 0 9.97266,-0.574344 7.8668981,7.0907476 78.231439 0 0 -0.82116,-11.008449 l -0.25664,-0.242875 a 7.8668981,7.0907476 78.231439 0 0 -4.66574,-1.86348 z m -33.76425,0.716524 a 7.8668981,7.0907476 78.231439 0 0 -2.00562,0.317206 7.8668981,7.0907476 78.231439 0 0 -3.27714,2.37732 7.8668981,7.0907476 78.231439 0 0 1.05363,10.994621 7.8668981,7.0907476 78.231439 0 0 9.97266,-0.574775 7.8668981,7.0907476 78.231439 0 0 -0.82073,-11.008018 l -0.25707,-0.243306 a 7.8668981,7.0907476 78.231439 0 0 -4.66573,-1.863048 z m 14.27386,12.269064 c -1.4505,0.0054 -2.69319,0.150112 -3.58586,0.46414 -0.15357,0.05406 -0.29658,0.113434 -0.42871,0.177619 -4.22824,2.053838 -11.86799,16.554397 -11.2821,21.414033 0.5859,4.859634 11.4429,17.044307 16.03325,17.993908 4.59035,0.949591 18.93996,-6.020467 21.19104,-10.293224 2.25109,-4.272763 0.26275,-20.765463 -2.93635,-24.355755 -2.51805,-2.825953 -12.70577,-5.424031 -18.99127,-5.400721 z m 49.56462,0.885067 a 7.0849403,7.3701521 6.3833616 0 0 -7.0584,6.69591 7.0849403,7.3701521 6.3833616 0 0 6.26432,7.998442 7.0849403,7.3701521 6.3833616 0 0 7.82373,-6.486742 l 0.0333,-0.341839 a 7.0849403,7.3701521 6.3833616 0 0 -2.73429,-6.368331 7.0849403,7.3701521 6.3833616 0 0 -3.70959,-1.474537 7.0849403,7.3701521 6.3833616 0 0 -0.6191,-0.02291 z m -17.12897,1.484041 a 7.0849403,7.3701521 6.3833616 0 0 -7.05841,6.69591 7.0849403,7.3701521 6.3833616 0 0 6.26432,7.998012 7.0849403,7.3701521 6.3833616 0 0 7.82374,-6.486311 l 0.0329,-0.34184 a 7.0849403,7.3701521 6.3833616 0 0 -2.73428,-6.367899 7.0849403,7.3701521 6.3833616 0 0 -3.70877,-1.474965 7.0849403,7.3701521 6.3833616 0 0 -0.61952,-0.02291 z m -55.15985,1.519912 a 7.8668981,7.0907476 78.231439 0 0 -2.00561,0.317206 7.8668981,7.0907476 78.231439 0 0 -3.27715,2.376889 7.8668981,7.0907476 78.231439 0 0 1.05323,10.99462 7.8668981,7.0907476 78.231439 0 0 9.97308,-0.574343 7.8668981,7.0907476 78.231439 0 0 -0.82117,-11.008448 l -0.25705,-0.242443 a 7.8668981,7.0907476 78.231439 0 0 -4.66533,-1.863481 z m 86.15773,7.861882 a 7.0849403,7.3701521 6.3833616 0 0 -7.05839,6.69634 7.0849403,7.3701521 6.3833616 0 0 6.26432,7.998014 7.0849403,7.3701521 6.3833616 0 0 7.82372,-6.486744 l 0.0329,-0.34184 a 7.0849403,7.3701521 6.3833616 0 0 -2.73387,-6.3679 7.0849403,7.3701521 6.3833616 0 0 -3.7096,-1.474965 7.0849403,7.3701521 6.3833616 0 0 -0.6191,-0.02291 z m -19.95825,6.205406 c -5.78701,0.04973 -12.5835,1.266541 -14.66049,3.172497 -3.32318,3.049524 -6.16668,18.509686 -4.19912,22.831096 1.96756,4.321407 15.61529,12.591194 20.15447,12.212444 4.5392,-0.37876 15.81743,-10.728327 16.65528,-15.28382 0.8116,-4.413138 -5.42956,-18.314725 -9.47648,-21.394587 -0.13073,-0.09908 -0.25884,-0.187502 -0.38454,-0.263619 -1.50802,-0.913761 -4.61691,-1.303852 -8.08912,-1.274011 z m 26.37047,10.65494 a 7.0849403,7.3701521 6.3833616 0 0 -7.05798,6.696342 7.0849403,7.3701521 6.3833616 0 0 6.26432,7.998009 7.0849403,7.3701521 6.3833616 0 0 7.82373,-6.48674 l 0.0329,-0.341839 a 7.0849403,7.3701521 6.3833616 0 0 -2.73428,-6.3679 7.0849403,7.3701521 6.3833616 0 0 -3.70918,-1.474968 7.0849403,7.3701521 6.3833616 0 0 -0.61952,-0.02291 z" />
    <text
       xml:space="preserve"
       style="font-style:normal;font-variant:normal;font-weight:normal;font-stretch:normal;font-size:43.2852px;line-height:1.25;font-family:'Gloucester MT Extra Condensed';-inkscape-font-specification:'Gloucester MT Extra Condensed, ';fill:#000000;fill-opacity:1;stroke:none;stroke-width:0.450887"
       x="76.46817"
       y="137.82658"
       id="text932"
       transform="scale(1.0409171,0.96069129)"><tspan
         sodipodi:role="line"
         id="tspan930"
         x="76.46817"
         y="137.82658"
         style="font-style:normal;font-variant:normal;font-weight:normal;font-stretch:normal;font-size:43.2852px;font-family:'Gloucester MT Extra Condensed';-inkscape-font-specification:'Gloucester MT Extra Condensed, ';stroke-width:0.450887">Pseći raj</tspan></text>
  </g>
</svg>
